<svg xmlns="http://www.w3.org/2000/svg" width="63" height="60" viewBox="0 0 63 60" fill="none"><path d="M58.9482 36.2365C59.6029 35.6405 59.9985 34.7881 59.9985 33.8578V26.1423C59.9985 24.3649 58.5541 22.9189 56.7786 22.9189H54.8145C54.2726 21.0192 53.5137 19.1886 52.5514 17.4604L53.9404 16.0713C54.5489 15.4628 54.8836 14.652 54.8829 13.7885C54.882 12.9267 54.547 12.1187 53.9404 11.5146L48.4854 6.05945C47.8793 5.45097 47.0697 5.11577 46.2059 5.11577C45.3421 5.11577 44.5325 5.45097 43.9275 6.05823L42.5385 7.44723C40.8105 6.48505 38.9799 5.72607 37.0803 5.18403V3.2199C37.0803 1.44448 35.6343 0 33.857 0H26.1417C24.3643 0 22.9184 1.44448 22.9184 3.2199V5.18403C21.0188 5.72595 19.1882 6.48493 17.46 7.44723L16.0711 6.05823C15.4625 5.44963 14.6514 5.12064 13.7883 5.11577C12.9265 5.11662 12.1185 5.4517 11.5144 6.05823L6.05933 11.5133C5.45158 12.1188 5.1165 12.9267 5.11565 13.7886C5.1148 14.6521 5.44951 15.4628 6.05811 16.0714L7.4471 17.4605C6.48493 19.1886 5.72595 21.0191 5.18403 22.919H3.2199C1.44448 22.9189 0 24.3649 0 26.1422V33.8577C0 35.6351 1.44448 37.0811 3.2199 37.0811H5.18403C5.72595 38.981 6.48493 40.8115 7.4471 42.5396L6.05933 43.9274C5.45085 44.5336 5.11565 45.3432 5.11565 46.207C5.11565 47.0709 5.45073 47.8804 6.05811 48.4854L11.5131 53.9406C12.1184 54.5483 12.9264 54.8835 13.7882 54.8842C14.6465 54.8823 15.4624 54.5504 16.071 53.9418L17.46 52.5528C19.1881 53.5149 21.0186 54.2739 22.9183 54.816V56.7801C22.9183 58.5555 24.3642 60 26.1416 60H33.8568C35.6342 60 37.0801 58.5555 37.0801 56.7801V54.8155C38.3061 54.465 39.508 54.0221 40.6687 53.4951C42.9577 55.8688 46.1685 57.3477 49.7185 57.3477C51.7793 57.3477 53.8255 56.837 55.6354 55.871C56.08 55.6336 56.248 55.0809 56.0108 54.6363C55.7734 54.1916 55.2204 54.0238 54.7761 54.2609C53.2296 55.0864 51.4807 55.5228 49.7185 55.5228C43.7899 55.5228 38.9667 50.6994 38.9667 44.7706C38.9667 38.8418 43.7899 34.0184 49.7185 34.0184C55.6471 34.0184 60.4703 38.8418 60.4703 44.7706C60.4703 47.4066 59.5037 49.9446 57.7487 51.9175C57.4138 52.2941 57.4475 52.8708 57.824 53.2058C58.2005 53.5407 58.7772 53.5072 59.1123 53.1305C61.165 50.8232 62.2954 47.8542 62.2954 44.7705C62.2954 41.4796 61.0244 38.4803 58.9482 36.2365ZM48.2133 32.2838C48.3071 31.5275 48.3548 30.7628 48.3548 29.9983C48.3548 19.8777 40.1197 11.6439 29.9974 11.6439C26.9962 11.6439 24.0166 12.3858 21.3808 13.7893C20.936 14.0262 20.7674 14.5788 21.0043 15.0237C21.2413 15.4686 21.794 15.6371 22.2387 15.4002C24.6114 14.1367 27.2944 13.4688 29.9976 13.4688C39.1135 13.4688 46.5298 20.8838 46.5298 29.9982C46.5298 30.8917 46.4571 31.7849 46.3154 32.6614C41.0287 34.1493 37.1418 39.0143 37.1418 44.7705C37.1418 44.8171 37.1431 44.8634 37.1437 44.9099C36.2952 45.3187 35.4224 45.6505 34.5281 45.9052V36.5757C38.2936 34.911 40.7811 31.1427 40.7811 27.0045C40.7811 23.5484 39.0669 20.3165 36.1966 18.3598C35.7825 18.0766 34.5224 17.215 33.4829 17.8137C32.466 18.3993 32.5703 19.8072 32.6203 20.4836C32.6253 20.5502 32.6302 20.6049 32.6306 20.6411V26.3769C32.6306 27.872 31.4792 29.1259 29.9977 29.259C28.5162 29.126 27.3647 27.872 27.3647 26.3769V20.6433C27.3653 20.6049 27.3702 20.55 27.3752 20.483C27.4258 19.8067 27.5309 18.3994 26.5151 17.8138C25.4764 17.2152 24.2163 18.0767 23.8032 18.3591C20.9319 20.3166 19.2177 23.5485 19.2177 27.0046C19.2177 31.1429 21.7051 34.9111 25.4707 36.5758V45.9007C18.5504 43.9269 13.4688 37.5451 13.4688 29.9983C13.4688 25.1897 15.5573 20.6293 19.1986 17.4862C19.5801 17.1568 19.6223 16.5806 19.2931 16.1991C18.9637 15.8174 18.3875 15.7751 18.0061 16.1046C13.9627 19.5947 11.6437 24.6588 11.6437 29.9983C11.6437 40.1208 19.8771 48.3561 29.9976 48.3561C32.5564 48.3561 35.0109 47.8452 37.3129 46.8392C37.6305 48.7501 38.3795 50.517 39.4575 52.0352C38.3185 52.5238 37.1404 52.9262 35.9412 53.2335C35.5376 53.3371 35.2552 53.7007 35.2552 54.1175V56.7801C35.2552 57.5492 34.628 58.1749 33.857 58.1749H26.1417C25.3707 58.1749 24.7435 57.5492 24.7435 56.7801V54.1175C24.7435 53.7005 24.4608 53.3366 24.0569 53.2333C21.8501 52.6693 19.7365 51.7929 17.7746 50.6286C17.4161 50.4159 16.9586 50.4732 16.6637 50.768L14.7806 52.6512C14.5175 52.9143 14.1664 53.0592 13.7915 53.0592C13.791 53.0592 13.7905 53.0592 13.79 53.0592C13.4164 53.0588 13.067 52.9144 12.8049 52.6512L7.34746 47.1937C7.08526 46.9324 6.94083 46.5821 6.94083 46.207C6.94083 45.832 7.08526 45.4816 7.34867 45.2192L9.23189 43.336C9.52682 43.041 9.58425 42.5837 9.37133 42.225C8.20706 40.2632 7.33079 38.1495 6.76672 35.9426C6.66342 35.5387 6.29951 35.2561 5.88254 35.2561H3.2199C2.45081 35.2561 1.82506 34.6287 1.82506 33.8577V26.1422C1.82506 25.3712 2.45081 24.7438 3.2199 24.7438H5.88242C6.29938 24.7438 6.6633 24.4612 6.7666 24.0572C7.33067 21.8502 8.20694 19.7366 9.37121 17.7749C9.58413 17.4162 9.5267 16.9588 9.23177 16.6639L7.34855 14.7807C7.08513 14.5173 6.94034 14.1655 6.94071 13.7902C6.94107 13.4165 7.0855 13.0671 7.34855 12.805L12.806 7.34746C13.0668 7.08562 13.4163 6.9412 13.7899 6.94083H13.7914C14.1661 6.94083 14.5174 7.08562 14.7804 7.34879L16.6635 9.23201C16.9584 9.52694 17.4158 9.58437 17.7745 9.37145C19.7365 8.20706 21.8501 7.33079 24.0567 6.76672C24.4607 6.66342 24.7433 6.29951 24.7433 5.88254V3.2199C24.7433 2.45081 25.3706 1.82506 26.1416 1.82506H33.8568C34.6279 1.82506 35.2551 2.45081 35.2551 3.2199V5.88254C35.2551 6.29951 35.5377 6.66342 35.9417 6.76672C38.1484 7.33066 40.2621 8.20706 42.2239 9.37145C42.5826 9.58425 43.0399 9.52682 43.3349 9.23201L45.2192 7.34758C45.4804 7.08538 45.8308 6.94095 46.2058 6.94095C46.5808 6.94095 46.9311 7.08538 47.1937 7.34892L52.6511 12.8065C52.9129 13.0673 53.0573 13.4168 53.0577 13.7904C53.0581 14.1658 52.9132 14.5176 52.6497 14.7809L50.7667 16.6642C50.4717 16.9591 50.4143 17.4164 50.6272 17.7751C51.7916 19.7371 52.6679 21.8509 53.2318 24.0575C53.3351 24.4614 53.699 24.7441 54.116 24.7441H56.7785C57.5476 24.7441 58.1734 25.3714 58.1734 26.1424V33.8579C58.1734 34.304 57.952 34.7201 57.6033 34.98C55.4449 33.2381 52.7016 32.1935 49.7186 32.1935C49.2091 32.1934 48.707 32.2246 48.2133 32.2838ZM26.6999 35.1059C23.316 33.8529 21.0426 30.5972 21.0426 27.0045C21.0426 24.1525 22.4588 21.4843 24.8322 19.8664C25.1884 19.6229 25.4219 19.5156 25.5582 19.4684C25.5864 19.6478 25.5855 19.9418 25.5552 20.347C25.5465 20.4637 25.5397 20.5559 25.5397 20.6411V26.3769C25.5397 28.8488 27.4706 30.9167 29.9356 31.0847C29.977 31.0875 30.0185 31.0875 30.0599 31.0847C32.5249 30.9167 34.4558 28.8488 34.4558 26.3769V20.6411C34.4558 20.5564 34.449 20.4649 34.4405 20.349C34.4103 19.9421 34.4098 19.647 34.4387 19.4678C34.5749 19.5148 34.8092 19.622 35.1677 19.8671C37.5399 21.4844 38.9562 24.1526 38.9562 27.0046C38.9562 30.5973 36.6826 33.8531 33.2989 35.106C32.9409 35.2385 32.7032 35.5801 32.7032 35.9617V46.312C31.818 46.4566 30.9156 46.531 29.9978 46.531C29.0777 46.531 28.1754 46.4543 27.2959 46.3089V35.9616C27.2955 35.5799 27.0579 35.2385 26.6999 35.1059Z" fill="#0C0A0A"></path><path d="M55.863 39.1791C54.5392 38.0743 52.5629 38.2499 51.4577 39.5693L48.2812 43.3569L47.7564 42.9119C46.4417 41.7977 44.4646 41.9613 43.3479 43.2781C42.2367 44.594 42.4007 46.5707 43.7133 47.6839L46.6359 50.1649C47.2133 50.653 47.9022 50.9067 48.6428 50.9066C48.7354 50.9066 48.8289 50.9027 48.9231 50.8946C49.7745 50.8226 50.5128 50.4381 51.0561 49.7851L56.2501 43.5872C56.7867 42.947 57.0419 42.1356 56.9689 41.3024C56.8958 40.4694 56.5035 39.7158 55.863 39.1791ZM54.8513 42.415L49.6551 48.6154C49.4195 48.8985 49.138 49.0449 48.7688 49.0762C48.4003 49.1072 48.0971 49.0105 47.8154 48.7723L44.8938 46.2922C44.3468 45.8283 44.2787 45.0043 44.7409 44.457C44.9987 44.1531 45.3668 43.9966 45.7368 43.9966C46.034 43.9966 46.3325 44.0976 46.5762 44.3041L47.8006 45.3423C47.9859 45.4994 48.2262 45.5757 48.468 45.5556C48.71 45.535 48.9339 45.4189 49.0899 45.2327L52.8565 40.7416C53.3171 40.1916 54.1413 40.1194 54.6922 40.5792C54.9575 40.8014 55.1204 41.1149 55.1508 41.4619C55.1814 41.8097 55.075 42.1482 54.8513 42.415Z" fill="#0C0A0A"></path></svg>