<svg xmlns="http://www.w3.org/2000/svg" width="60" height="60" viewBox="0 0 60 60" fill="none"><path fill-rule="evenodd" clip-rule="evenodd" d="M43.1234 5.62597V15.0008C43.1234 18.1067 45.6415 20.6257 48.7483 20.6257H58.1232V51.5627C58.1232 55.187 55.1851 58.125 51.5608 58.125H27.1862C23.5619 58.125 20.6238 55.187 20.6238 51.5627V33.7505C20.6238 33.233 20.2039 32.813 19.6864 32.813C19.1689 32.813 18.7489 33.233 18.7489 33.7505V51.5627C18.7489 56.2219 22.5269 60 27.1862 60H51.5608C56.2201 60 59.9981 56.2219 59.9981 51.5627V19.6882C59.9981 19.4398 59.8997 19.2007 59.7235 19.0254L44.7237 4.02569C44.5484 3.84944 44.3094 3.751 44.0609 3.751H36.5611C36.0436 3.751 35.6236 4.171 35.6236 4.68849C35.6236 5.20598 36.0436 5.62597 36.5611 5.62597H43.1234ZM49.6858 52.5001H52.4983C53.0158 52.5001 53.4358 52.0801 53.4358 51.5627C53.4358 51.0452 53.0158 50.6252 52.4983 50.6252H49.6858C49.1683 50.6252 48.7483 51.0452 48.7483 51.5627C48.7483 52.0801 49.1683 52.5001 49.6858 52.5001ZM45.9359 50.6252H33.7486C33.2311 50.6252 32.8111 51.0452 32.8111 51.5627C32.8111 52.0801 33.2311 52.5001 33.7486 52.5001H45.9359C46.4534 52.5001 46.8734 52.0801 46.8734 51.5627C46.8734 51.0452 46.4534 50.6252 45.9359 50.6252ZM29.9987 50.6252H27.1862C26.6687 50.6252 26.2487 51.0452 26.2487 51.5627C26.2487 52.0801 26.6687 52.5001 27.1862 52.5001H29.9987C30.5162 52.5001 30.9362 52.0801 30.9362 51.5627C30.9362 51.0452 30.5162 50.6252 29.9987 50.6252ZM11.3484 27.265L9.93841 30.0305C8.50219 30.233 7.17377 31.0815 6.39285 32.4502L0.728576 42.3791C-0.815459 45.0865 0.180149 48.559 2.90729 50.0027C5.64943 51.453 9.02624 50.283 10.3181 47.4237L15.0308 36.9914C15.6786 35.557 15.5942 33.9642 14.9286 32.6564L16.3339 29.8983C23.0969 31.9636 30.5621 28.9196 33.9361 22.2991C37.747 14.8208 34.882 5.61097 27.5443 1.72604C20.1926 -2.16639 11.1346 0.745433 7.31627 8.23967C3.94414 14.8546 5.79661 22.825 11.3484 27.265ZM3.78477 48.3452C1.98387 47.3927 1.33794 45.0959 2.35792 43.309L8.02126 33.3802C8.82281 31.9749 10.5637 31.4527 11.9793 32.2027C13.408 32.9592 13.9958 34.7283 13.3227 36.2189L8.61 46.6512C7.76814 48.5149 5.57161 49.2911 3.78477 48.3452ZM44.9984 45.9378H42.186C41.6685 45.9378 41.2485 46.3577 41.2485 46.8752C41.2485 47.3927 41.6685 47.8127 42.186 47.8127H44.9984C45.5159 47.8127 45.9359 47.3927 45.9359 46.8752C45.9359 46.3577 45.5159 45.9378 44.9984 45.9378ZM30.9362 45.9378H27.1862C26.6687 45.9378 26.2487 46.3577 26.2487 46.8752C26.2487 47.3927 26.6687 47.8127 27.1862 47.8127H30.9362C31.4537 47.8127 31.8736 47.3927 31.8736 46.8752C31.8736 46.3577 31.4537 45.9378 30.9362 45.9378ZM38.436 45.9378H34.6861C34.1686 45.9378 33.7486 46.3577 33.7486 46.8752C33.7486 47.3927 34.1686 47.8127 34.6861 47.8127H38.436C38.9535 47.8127 39.3735 47.3927 39.3735 46.8752C39.3735 46.3577 38.9535 45.9378 38.436 45.9378ZM48.7483 47.8127H52.4983C53.0158 47.8127 53.4358 47.3927 53.4358 46.8752C53.4358 46.3577 53.0158 45.9378 52.4983 45.9378H48.7483C48.2309 45.9378 47.8109 46.3577 47.8109 46.8752C47.8109 47.3927 48.2309 47.8127 48.7483 47.8127ZM29.9987 41.2503H27.1862C26.6687 41.2503 26.2487 41.6703 26.2487 42.1878C26.2487 42.7053 26.6687 43.1253 27.1862 43.1253H29.9987C30.5162 43.1253 30.9362 42.7053 30.9362 42.1878C30.9362 41.6703 30.5162 41.2503 29.9987 41.2503ZM48.7483 43.1253H52.4983C53.0158 43.1253 53.4358 42.7053 53.4358 42.1878C53.4358 41.6703 53.0158 41.2503 52.4983 41.2503H48.7483C48.2309 41.2503 47.8109 41.6703 47.8109 42.1878C47.8109 42.7053 48.2309 43.1253 48.7483 43.1253ZM44.9984 41.2503H33.7486C33.2311 41.2503 32.8111 41.6703 32.8111 42.1878C32.8111 42.7053 33.2311 43.1253 33.7486 43.1253H44.9984C45.5159 43.1253 45.9359 42.7053 45.9359 42.1878C45.9359 41.6703 45.5159 41.2503 44.9984 41.2503ZM30.9362 36.5629H27.1862C26.6687 36.5629 26.2487 36.9829 26.2487 37.5004C26.2487 38.0179 26.6687 38.4379 27.1862 38.4379H30.9362C31.4537 38.4379 31.8736 38.0179 31.8736 37.5004C31.8736 36.9829 31.4537 36.5629 30.9362 36.5629ZM41.2485 36.5629H34.6861C34.1686 36.5629 33.7486 36.9829 33.7486 37.5004C33.7486 38.0179 34.1686 38.4379 34.6861 38.4379H41.2485C41.766 38.4379 42.186 38.0179 42.186 37.5004C42.186 36.9829 41.766 36.5629 41.2485 36.5629ZM52.4983 36.5629H44.9984C44.4809 36.5629 44.0609 36.9829 44.0609 37.5004C44.0609 38.0179 44.4809 38.4379 44.9984 38.4379H52.4983C53.0158 38.4379 53.4358 38.0179 53.4358 37.5004C53.4358 36.9829 53.0158 36.5629 52.4983 36.5629ZM38.436 31.8755H35.6236C35.1061 31.8755 34.6861 32.2955 34.6861 32.813C34.6861 33.3305 35.1061 33.7505 35.6236 33.7505H38.436C38.9535 33.7505 39.3735 33.3305 39.3735 32.813C39.3735 32.2955 38.9535 31.8755 38.436 31.8755ZM31.8736 31.8755H27.1862C26.6687 31.8755 26.2487 32.2955 26.2487 32.813C26.2487 33.3305 26.6687 33.7505 27.1862 33.7505H31.8736C32.3911 33.7505 32.8111 33.3305 32.8111 32.813C32.8111 32.2955 32.3911 31.8755 31.8736 31.8755ZM52.4983 31.8755H42.186C41.6685 31.8755 41.2485 32.2955 41.2485 32.813C41.2485 33.3305 41.6685 33.7505 42.186 33.7505H52.4983C53.0158 33.7505 53.4358 33.3305 53.4358 32.813C53.4358 32.2955 53.0158 31.8755 52.4983 31.8755ZM12.8971 28.3515C12.8934 28.359 12.8896 28.3684 12.8859 28.3768L12.0093 30.0962L13.678 30.9802L14.5546 29.2599C14.5583 29.2515 14.5621 29.2421 14.5658 29.2327C14.2771 29.1024 13.9912 28.9627 13.7071 28.8118C13.4315 28.6665 13.1615 28.5127 12.8971 28.3515ZM43.1234 27.1881H40.311C39.7935 27.1881 39.3735 27.6081 39.3735 28.1256C39.3735 28.6431 39.7935 29.0631 40.311 29.0631H43.1234C43.6409 29.0631 44.0609 28.6431 44.0609 28.1256C44.0609 27.6081 43.6409 27.1881 43.1234 27.1881ZM36.5611 27.1881H32.8111C32.2936 27.1881 31.8736 27.6081 31.8736 28.1256C31.8736 28.6431 32.2936 29.0631 32.8111 29.0631H36.5611C37.0786 29.0631 37.4985 28.6431 37.4985 28.1256C37.4985 27.6081 37.0786 27.1881 36.5611 27.1881ZM52.4983 27.1881H46.8734C46.3559 27.1881 45.9359 27.6081 45.9359 28.1256C45.9359 28.6431 46.3559 29.0631 46.8734 29.0631H52.4983C53.0158 29.0631 53.4358 28.6431 53.4358 28.1256C53.4358 27.6081 53.0158 27.1881 52.4983 27.1881ZM14.699 27.2153L14.4711 27.0943C8.11313 23.6491 5.65974 15.6167 8.98687 9.09091C12.3252 2.53884 20.2395 -0.020491 26.6669 3.38257C33.1083 6.79314 35.6114 14.8827 32.2655 21.4479C28.9468 27.9596 21.1048 30.5265 14.699 27.2153ZM15.4349 25.4209C20.9417 28.3365 27.7497 26.1494 30.609 20.5376C33.4617 14.9399 31.3083 8.02312 25.8166 5.11692C20.3107 2.20134 13.5027 4.38849 10.6425 9.99933C7.78876 15.598 9.9431 22.5138 15.4349 25.4209ZM16.3124 23.7644C11.7149 21.3298 9.92435 15.537 12.3131 10.8515C14.6943 6.18002 20.3567 4.34724 24.9391 6.77345C29.5356 9.20716 31.3262 15.0008 28.9384 19.6863C26.5581 24.3578 20.8957 26.1906 16.3124 23.7644ZM52.4983 22.5007H46.8734C46.3559 22.5007 45.9359 22.9207 45.9359 23.4382C45.9359 23.9556 46.3559 24.3756 46.8734 24.3756H52.4983C53.0158 24.3756 53.4358 23.9556 53.4358 23.4382C53.4358 22.9207 53.0158 22.5007 52.4983 22.5007ZM43.1234 22.5007H36.5611C36.0436 22.5007 35.6236 22.9207 35.6236 23.4382C35.6236 23.9556 36.0436 24.3756 36.5611 24.3756H43.1234C43.6409 24.3756 44.0609 23.9556 44.0609 23.4382C44.0609 22.9207 43.6409 22.5007 43.1234 22.5007ZM40.311 17.8133H38.436C37.9185 17.8133 37.4985 18.2332 37.4985 18.7507C37.4985 19.2682 37.9185 19.6882 38.436 19.6882H40.311C40.8285 19.6882 41.2485 19.2682 41.2485 18.7507C41.2485 18.2332 40.8285 17.8133 40.311 17.8133ZM27.0269 15.523C27.2397 15.207 27.2397 14.7946 27.0269 14.4786C27.0269 14.4786 26.0406 13.0058 24.5191 11.8293C23.4307 10.9874 22.0769 10.3134 20.6238 10.3134C19.1707 10.3134 17.817 10.9874 16.7286 11.8293C15.2071 13.0058 14.2208 14.4786 14.2208 14.4786C14.008 14.7946 14.008 15.207 14.2208 15.523C14.2208 15.523 15.2071 16.9958 16.7286 18.1723C17.817 19.0142 19.1707 19.6882 20.6238 19.6882C22.0769 19.6882 23.4307 19.0142 24.5191 18.1723C26.0406 16.9958 27.0269 15.523 27.0269 15.523ZM56.7976 18.7507L44.9984 6.95251V15.0008C44.9984 17.0717 46.6774 18.7507 48.7483 18.7507H56.7976ZM25.076 15.0008C24.7131 15.4489 24.1197 16.1117 23.3725 16.6892C22.5991 17.2873 21.656 17.8133 20.6238 17.8133C19.5917 17.8133 18.6486 17.2873 17.8751 16.6892C17.128 16.1108 16.5345 15.4489 16.1717 15.0008C16.5345 14.5527 17.128 13.8899 17.8751 13.3124C18.6486 12.7143 19.5917 12.1884 20.6238 12.1884C21.656 12.1884 22.5991 12.7143 23.3725 13.3124C24.1197 13.8908 24.7131 14.5527 25.076 15.0008ZM21.5613 15.0008C21.5613 15.5183 21.1413 15.9383 20.6238 15.9383C20.1064 15.9383 19.6864 15.5183 19.6864 15.0008C19.6864 14.4833 20.1064 14.0633 20.6238 14.0633C21.1413 14.0633 21.5613 14.4833 21.5613 15.0008ZM40.311 13.1258H39.3735C38.856 13.1258 38.436 13.5458 38.436 14.0633C38.436 14.5808 38.856 15.0008 39.3735 15.0008H40.311C40.8285 15.0008 41.2485 14.5808 41.2485 14.0633C41.2485 13.5458 40.8285 13.1258 40.311 13.1258Z" fill="#0C0A0A"></path></svg>