<svg xmlns="http://www.w3.org/2000/svg" width="66" height="60" viewBox="0 0 66 60" fill="none"><path d="M61.5777 27.915C61.7518 25.464 60.0082 23.22 57.5491 22.893L56.2742 22.6875C55.6167 10.074 45.2299 0 32.5566 0C19.8684 0 9.48458 10.074 8.84042 22.689L7.5655 22.8945C5.09005 23.2215 3.34652 25.4655 3.53694 27.9465C2.55658 28.2735 1.67737 28.893 1.04661 29.7495C0.212036 30.8715 -0.13905 32.2605 0.0498819 33.6495C0.226913 34.977 0.914208 36.1605 1.98532 36.9585C2.84964 37.6065 3.87315 37.9635 4.94426 37.9905C5.17782 39.0855 5.77883 40.0905 6.68779 40.767C7.52236 41.3865 8.50273 41.7435 9.51433 41.7435C9.73599 41.7435 11.9898 41.4165 11.9898 41.4165C13.2379 41.241 14.3358 40.59 15.0975 39.5865C15.8592 38.5815 16.1805 37.311 16.0035 36.072L14.6869 26.676C14.5099 25.4055 13.8642 24.3135 12.8571 23.5455C12.2546 23.073 11.5524 22.8075 10.8205 22.659C11.4899 11.166 20.9693 2.0085 32.5566 2.0085C44.129 2.0085 53.6217 11.166 54.2808 22.6575C53.5637 22.806 52.8615 23.0715 52.2442 23.544C51.2474 24.312 50.6063 25.404 50.4292 26.6745L49.1127 36.0705C48.9356 37.311 49.257 38.5815 50.0187 39.585C50.7238 40.5285 51.7473 41.1495 52.8898 41.385C52.1728 46.2615 49.7122 50.6325 45.8726 53.733C42.8422 56.187 39.251 57.6045 35.459 57.9285C35.8398 57.369 36.0734 56.748 36.1463 56.0685C36.2787 54.9165 35.9574 53.793 35.2403 52.908C34.5352 51.9915 33.5236 51.462 32.381 51.3135C31.2534 51.195 30.1391 51.519 29.2466 52.227C28.3554 52.938 27.7976 53.973 27.6801 55.122C27.4167 57.4875 29.1023 59.6145 31.4453 59.85C32.2472 59.97 33.0401 60 33.8464 60C38.65 60 43.2945 58.3755 47.1043 55.302C51.3382 51.8745 54.0472 47.058 54.8386 41.6835H54.9249C55.1436 41.7135 55.3623 41.7435 55.5854 41.7435C56.6119 41.7435 57.5923 41.3865 58.412 40.767C59.3507 40.059 59.9517 39.0555 60.1853 37.932C62.631 37.8135 64.739 35.9805 65.093 33.4395C65.4456 30.9285 63.891 28.626 61.5777 27.915ZM3.16949 35.361C2.52385 34.8885 2.11326 34.1805 1.99573 33.3525C1.87821 32.496 2.10135 31.641 2.61013 30.96C2.93444 30.546 3.33016 30.192 3.78389 29.9865L4.61846 35.955C4.1082 35.8935 3.61132 35.6865 3.16949 35.361ZM12.7381 26.9415L14.0398 36.3375C14.1424 37.0755 13.9535 37.7835 13.5117 38.373C13.0743 38.9655 12.4286 39.3495 11.7116 39.468L9.90856 39.705C9.19151 39.8235 8.47446 39.618 7.88684 39.1725C7.30219 38.7315 6.92135 38.1075 6.8187 37.3695L5.49915 27.9765C5.29535 26.4705 6.3367 25.0515 7.83031 24.846L8.81067 24.6975V32.436C8.81067 32.9985 9.24804 33.441 9.79103 33.441C10.334 33.441 10.7878 33 10.7878 32.436V24.6975C11.0972 24.7845 11.4022 24.933 11.667 25.1385C12.2516 25.584 12.6324 26.2335 12.7381 26.9415ZM30.1243 57.045C29.7434 56.5425 29.5694 55.953 29.6259 55.3335C29.7003 54.714 30.0067 54.1815 30.4783 53.796C30.9618 53.412 31.5613 53.2335 32.1757 53.2935C32.7753 53.3805 33.3183 53.6775 33.7006 54.15C34.0814 54.6225 34.2555 55.245 34.1841 55.8345C34.1246 56.454 33.8181 57.015 33.3495 57.399C32.863 57.783 32.2635 57.9615 31.664 57.9015C31.0481 57.813 30.5051 57.516 30.1243 57.045ZM57.2278 39.1725C56.6402 39.6165 55.9231 39.8235 55.2061 39.705L53.3882 39.4695C52.6711 39.351 52.0404 38.967 51.603 38.3745C51.1627 37.785 50.9574 37.077 51.0749 36.339L52.3766 26.943C52.4822 26.235 52.863 25.584 53.4477 25.14C53.711 24.9345 54.0175 24.786 54.3269 24.699V32.4375C54.3269 33 54.7643 33.4425 55.3236 33.4425C55.8666 33.4425 56.304 33.0015 56.304 32.4375V24.699L57.2695 24.8475C58.7631 25.053 59.8193 26.472 59.6006 27.978L58.2959 37.371C58.1933 38.1075 57.8125 38.73 57.2278 39.1725ZM63.1442 33.1455C62.9404 34.5915 61.8425 35.6865 60.4917 35.922L61.3293 29.9235C61.8128 30.132 62.2382 30.456 62.5596 30.9C63.0416 31.5495 63.2454 32.3475 63.1442 33.1455Z" fill="#0C0A0A"></path><path d="M29.7419 41.0925C29.8014 41.5335 30.1228 41.8605 30.5497 41.919C31.2103 42.0375 31.8812 42.0975 32.5566 42.0975C33.232 42.0975 33.9044 42.0375 34.5634 41.919C34.974 41.862 35.2953 41.535 35.3668 41.0925L35.8949 37.7835L38.592 39.762C38.9282 39.9975 39.3953 39.9975 39.7464 39.762C40.8473 38.967 41.783 38.019 42.5759 36.897C42.8244 36.573 42.8244 36.099 42.5759 35.745L40.6137 33.0285L43.9074 32.496C44.3328 32.436 44.6542 32.082 44.73 31.6695C44.8327 30.9885 44.8892 30.3075 44.8892 29.658C44.8892 29.01 44.8327 28.299 44.73 27.6225C44.6557 27.2085 44.3343 26.8845 43.9074 26.8245L40.6137 26.292L42.5759 23.5755C42.8244 23.2215 42.8244 22.746 42.5759 22.392C41.7994 21.3 40.8473 20.3535 39.7345 19.557C39.3953 19.2915 38.9267 19.2915 38.592 19.557L35.8949 21.5055L35.3668 18.1965C35.2953 17.7855 34.974 17.4585 34.5471 17.37C33.2305 17.1645 31.8797 17.1645 30.5482 17.37C30.1228 17.457 29.8014 17.784 29.7405 18.1965L29.2153 21.5055L26.5182 19.557C26.1671 19.2915 25.6985 19.2915 25.3608 19.557C24.2629 20.352 23.3123 21.3 22.5343 22.392C22.2858 22.746 22.2858 23.2215 22.5343 23.5755L24.4846 26.292L21.2028 26.8245C20.7773 26.8845 20.456 27.2085 20.3801 27.6225C20.2626 28.3005 20.221 28.9815 20.221 29.658C20.221 30.309 20.2626 31.02 20.3801 31.6695C20.4545 32.0805 20.7759 32.4345 21.2028 32.496L24.4846 33.0285L22.5343 35.745C22.2858 36.099 22.2858 36.5745 22.5343 36.897C23.3108 37.989 24.2629 38.9655 25.3489 39.762C25.7 39.9975 26.1686 39.9975 26.5197 39.762L29.2168 37.7835L29.7419 41.0925ZM28.5131 35.835L25.9514 37.695C25.453 37.281 24.9859 36.8085 24.559 36.306L26.4334 33.705C26.6521 33.411 26.6818 33.027 26.5048 32.673C26.3724 32.4075 26.2564 32.1105 26.1537 31.8135C26.0362 31.4595 25.7312 31.194 25.3772 31.1355L22.2427 30.633C22.2159 30.306 22.1862 29.982 22.1862 29.6565C22.1862 29.3325 22.2159 29.0085 22.2427 28.6515L25.3772 28.149C25.7312 28.092 26.0377 27.825 26.1537 27.471C26.2564 27.2055 26.3724 26.9085 26.5197 26.6145C26.6818 26.2875 26.6521 25.8735 26.4334 25.5795L24.559 23.0085C24.9844 22.476 25.4382 22.035 25.9514 21.5895L28.528 23.4795C28.8226 23.688 29.2183 23.718 29.5396 23.571C29.8491 23.4225 30.1243 23.274 30.4039 23.217C30.755 23.0985 31.0183 22.773 31.0645 22.419L31.5777 19.2585C32.2382 19.1985 32.8794 19.1985 33.5399 19.2585L34.0383 22.419C34.0978 22.773 34.3477 23.1 34.6988 23.217C34.9785 23.274 35.2686 23.4225 35.5631 23.571C35.8993 23.7465 36.2802 23.6895 36.5896 23.4795L39.1513 21.5895C39.6646 22.0035 40.1317 22.476 40.5438 23.0085L38.6842 25.5795C38.4655 25.8735 38.4358 26.2875 38.5979 26.6145C38.7452 26.9385 38.8613 27.204 38.9639 27.501C39.0814 27.855 39.3715 28.0905 39.7405 28.149L42.872 28.6515C42.9017 29.0085 42.9166 29.3325 42.9166 29.6565C42.9166 29.9835 42.9017 30.3075 42.872 30.633L39.7405 31.1355C39.3715 31.1925 39.0799 31.4595 38.9639 31.8135C38.8613 32.079 38.7452 32.376 38.5979 32.673C38.4358 33.027 38.4655 33.411 38.6842 33.705L40.5438 36.306C40.1332 36.8085 39.6646 37.2795 39.1513 37.695L36.5896 35.835C36.2802 35.5965 35.8993 35.5695 35.5631 35.7435C35.2834 35.892 34.9934 36.009 34.6988 36.0975C34.3477 36.216 34.0993 36.5115 34.0383 36.8955L33.5399 40.056C32.8943 40.116 32.2233 40.116 31.5777 40.056L31.0645 36.8955C31.0198 36.5115 30.755 36.2145 30.4039 36.0975C30.1124 36.0105 29.8193 35.892 29.5545 35.7435C29.2168 35.5695 28.836 35.5965 28.5131 35.835Z" fill="#0C0A0A"></path><path d="M32.5566 33.618C34.7256 33.618 36.4959 31.845 36.4959 29.658C36.4959 27.444 34.7256 25.671 32.5566 25.671C30.3727 25.671 28.6024 27.444 28.6024 29.658C28.6024 31.845 30.3727 33.618 32.5566 33.618ZM32.5566 27.6495C33.6396 27.6495 34.5188 28.536 34.5188 29.658C34.5188 30.753 33.6396 31.6395 32.5566 31.6395C31.4587 31.6395 30.5795 30.753 30.5795 29.658C30.5795 28.536 31.4587 27.6495 32.5566 27.6495Z" fill="#0C0A0A"></path></svg>