<svg xmlns="http://www.w3.org/2000/svg" width="60" height="60" viewBox="0 0 60 60" fill="none"><path d="M13.4483 25.8621H38.2759C38.8476 25.8621 39.3103 25.3994 39.3103 24.8276C39.3103 24.2558 38.8476 23.7931 38.2759 23.7931H13.4483C12.8765 23.7931 12.4138 24.2558 12.4138 24.8276C12.4138 25.3994 12.8765 25.8621 13.4483 25.8621Z" fill="#0C0A0A"></path><path d="M13.4483 31.0345H34.1379C34.7097 31.0345 35.1724 30.5718 35.1724 30C35.1724 29.4282 34.7097 28.9655 34.1379 28.9655H13.4483C12.8765 28.9655 12.4138 29.4282 12.4138 30C12.4138 30.5718 12.8765 31.0345 13.4483 31.0345Z" fill="#0C0A0A"></path><path d="M13.4483 20.6897H28.9655C29.5373 20.6897 30 20.227 30 19.6552C30 19.0834 29.5373 18.6207 28.9655 18.6207H13.4483C12.8765 18.6207 12.4138 19.0834 12.4138 19.6552C12.4138 20.227 12.8765 20.6897 13.4483 20.6897Z" fill="#0C0A0A"></path><path d="M13.4483 46.5517H25.8621C26.4339 46.5517 26.8966 46.089 26.8966 45.5172C26.8966 44.9454 26.4339 44.4828 25.8621 44.4828H13.4483C12.8765 44.4828 12.4138 44.9454 12.4138 45.5172C12.4138 46.089 12.8765 46.5517 13.4483 46.5517Z" fill="#0C0A0A"></path><path d="M13.4483 41.3793H26.8966C27.4683 41.3793 27.931 40.9166 27.931 40.3448C27.931 39.773 27.4683 39.3103 26.8966 39.3103H13.4483C12.8765 39.3103 12.4138 39.773 12.4138 40.3448C12.4138 40.9166 12.8765 41.3793 13.4483 41.3793Z" fill="#0C0A0A"></path><path d="M13.4483 36.2069H30C30.5718 36.2069 31.0345 35.7442 31.0345 35.1724C31.0345 34.6006 30.5718 34.1379 30 34.1379H13.4483C12.8765 34.1379 12.4138 34.6006 12.4138 35.1724C12.4138 35.7442 12.8765 36.2069 13.4483 36.2069Z" fill="#0C0A0A"></path><path d="M45.5172 31.0345V11.3793C45.5172 11.241 45.4891 11.1061 45.437 10.9811C45.3843 10.8551 45.3081 10.7415 45.2128 10.6466L34.8707 0.304386C34.7758 0.20911 34.6622 0.1329 34.5361 0.0802448C34.4111 0.0280965 34.2762 0 34.1379 0H9.31034C7.599 0 6.2069 1.3921 6.2069 3.10345V6.2069H3.10345C1.3921 6.2069 0 7.599 0 9.31034V56.8965C0 58.6079 1.3921 60 3.10345 60H36.2069C37.3742 60 38.3807 59.3447 38.9105 58.3898C40.894 59.412 43.1364 60 45.5172 60C53.5032 60 60 53.5032 60 45.5172C60 37.5313 53.5032 31.0345 45.5172 31.0345ZM35.1724 3.53179L41.9855 10.3448H35.1724V3.53179ZM8.27586 3.10345C8.27586 2.53266 8.73956 2.06897 9.31034 2.06897H33.1034V11.3793C33.1034 11.9511 33.5661 12.4138 34.1379 12.4138H43.4483V31.1997C36.4415 32.209 31.0345 38.2355 31.0345 45.5172C31.0345 47.7404 31.5528 49.8398 32.4518 51.7241H9.31034C8.73956 51.7241 8.27586 51.2604 8.27586 50.6897V3.10345ZM36.2069 57.931H3.10345C2.53266 57.931 2.06897 57.4673 2.06897 56.8965V9.31034C2.06897 8.73956 2.53266 8.27586 3.10345 8.27586H6.2069V50.6897C6.2069 52.401 7.599 53.7931 9.31034 53.7931H33.6489C34.6046 55.1594 35.7902 56.3498 37.1485 57.3161C36.987 57.677 36.6276 57.931 36.2069 57.931ZM45.5172 57.931C38.6719 57.931 33.1034 52.3626 33.1034 45.5172C33.1034 38.6719 38.6719 33.1034 45.5172 33.1034C52.3626 33.1034 57.931 38.6719 57.931 45.5172C57.931 52.3626 52.3626 57.931 45.5172 57.931Z" fill="#0C0A0A"></path><path d="M52.0272 39.6134L43.5341 48.1065L40.1185 43.8362C39.7609 43.3897 39.1103 43.3169 38.6638 43.6746C38.2183 44.0322 38.1455 44.6828 38.5022 45.1293L42.6401 50.3017C42.8239 50.531 43.0977 50.6715 43.3907 50.6876C43.6822 50.7037 43.9737 50.5937 44.1797 50.3866L53.49 41.0762C53.8941 40.6721 53.8941 40.0175 53.49 39.6134C53.0859 39.2093 52.4313 39.2093 52.0272 39.6134Z" fill="#0C0A0A"></path></svg>